<mxfile host="app.diagrams.net" modified="2023-05-12T18:21:53.719Z" agent="Mozilla/5.0 (Windows NT 10.0; Win64; x64) AppleWebKit/537.36 (KHTML, like Gecko) Chrome/113.0.0.0 Safari/537.36" etag="qVOMsXpSwd_xdqQhRq8J" version="21.2.9" type="device">
  <diagram name="PÃ¡gina-1" id="UtlKM4mlHdbyoYkf3zBW">
    <mxGraphModel dx="880" dy="452" grid="1" gridSize="10" guides="1" tooltips="1" connect="1" arrows="1" fold="1" page="1" pageScale="1" pageWidth="827" pageHeight="1169" math="0" shadow="0">
      <root>
        <mxCell id="0" />
        <mxCell id="1" parent="0" />
        <mxCell id="sD63VuQuJuXM54PMLPWS-1" value="usuario" style="shape=umlActor;verticalLabelPosition=bottom;verticalAlign=top;html=1;outlineConnect=0;" parent="1" vertex="1">
          <mxGeometry x="30" y="820" width="40" height="70" as="geometry" />
        </mxCell>
        <mxCell id="sD63VuQuJuXM54PMLPWS-2" value="Registrar-se" style="ellipse;whiteSpace=wrap;html=1;" parent="1" vertex="1">
          <mxGeometry x="190" y="900" width="90" height="60" as="geometry" />
        </mxCell>
        <mxCell id="sD63VuQuJuXM54PMLPWS-3" value="" style="endArrow=classic;html=1;rounded=0;entryX=0;entryY=1;entryDx=0;entryDy=0;" parent="1" source="sD63VuQuJuXM54PMLPWS-1" target="sD63VuQuJuXM54PMLPWS-2" edge="1">
          <mxGeometry width="50" height="50" relative="1" as="geometry">
            <mxPoint x="50" y="800" as="sourcePoint" />
            <mxPoint x="100" y="780" as="targetPoint" />
          </mxGeometry>
        </mxCell>
        <mxCell id="sD63VuQuJuXM54PMLPWS-8" value=" login " style="ellipse;whiteSpace=wrap;html=1;" parent="1" vertex="1">
          <mxGeometry x="80" y="1015" width="90" height="60" as="geometry" />
        </mxCell>
        <mxCell id="sD63VuQuJuXM54PMLPWS-9" value="" style="endArrow=classic;html=1;rounded=0;" parent="1" source="sD63VuQuJuXM54PMLPWS-1" target="sD63VuQuJuXM54PMLPWS-8" edge="1">
          <mxGeometry width="50" height="50" relative="1" as="geometry">
            <mxPoint x="50" y="850" as="sourcePoint" />
            <mxPoint x="100" y="800" as="targetPoint" />
          </mxGeometry>
        </mxCell>
        <mxCell id="sD63VuQuJuXM54PMLPWS-10" value="vendedor&lt;br&gt;" style="shape=umlActor;verticalLabelPosition=bottom;verticalAlign=top;html=1;outlineConnect=0;" parent="1" vertex="1">
          <mxGeometry x="760" y="1010" width="40" height="70" as="geometry" />
        </mxCell>
        <mxCell id="sD63VuQuJuXM54PMLPWS-11" value=" registrar produto" style="ellipse;whiteSpace=wrap;html=1;" parent="1" vertex="1">
          <mxGeometry x="660" y="670" width="90" height="60" as="geometry" />
        </mxCell>
        <mxCell id="sD63VuQuJuXM54PMLPWS-12" value="" style="endArrow=classic;html=1;rounded=0;" parent="1" source="sD63VuQuJuXM54PMLPWS-10" target="sD63VuQuJuXM54PMLPWS-11" edge="1">
          <mxGeometry width="50" height="50" relative="1" as="geometry">
            <mxPoint x="670" y="1029" as="sourcePoint" />
            <mxPoint x="700" y="1000" as="targetPoint" />
          </mxGeometry>
        </mxCell>
        <mxCell id="sD63VuQuJuXM54PMLPWS-13" value=" atender cliente" style="ellipse;whiteSpace=wrap;html=1;" parent="1" vertex="1">
          <mxGeometry x="440" y="840" width="90" height="60" as="geometry" />
        </mxCell>
        <mxCell id="sD63VuQuJuXM54PMLPWS-14" value="" style="endArrow=classic;html=1;rounded=0;" parent="1" source="sD63VuQuJuXM54PMLPWS-10" target="sD63VuQuJuXM54PMLPWS-13" edge="1">
          <mxGeometry width="50" height="50" relative="1" as="geometry">
            <mxPoint x="590" y="1069" as="sourcePoint" />
            <mxPoint x="620" y="1040" as="targetPoint" />
          </mxGeometry>
        </mxCell>
        <mxCell id="sD63VuQuJuXM54PMLPWS-15" value=" realizar pedido" style="ellipse;whiteSpace=wrap;html=1;" parent="1" vertex="1">
          <mxGeometry x="140" y="730" width="90" height="60" as="geometry" />
        </mxCell>
        <mxCell id="sD63VuQuJuXM54PMLPWS-16" value="" style="endArrow=classic;html=1;rounded=0;" parent="1" target="sD63VuQuJuXM54PMLPWS-15" edge="1">
          <mxGeometry width="50" height="50" relative="1" as="geometry">
            <mxPoint x="80" y="873.4080109831184" as="sourcePoint" />
            <mxPoint x="140" y="860" as="targetPoint" />
          </mxGeometry>
        </mxCell>
        <mxCell id="sD63VuQuJuXM54PMLPWS-17" value=" realizar venda" style="ellipse;whiteSpace=wrap;html=1;" parent="1" vertex="1">
          <mxGeometry x="530" y="800" width="90" height="60" as="geometry" />
        </mxCell>
        <mxCell id="sD63VuQuJuXM54PMLPWS-18" value="" style="endArrow=classic;html=1;rounded=0;" parent="1" source="sD63VuQuJuXM54PMLPWS-10" target="sD63VuQuJuXM54PMLPWS-17" edge="1">
          <mxGeometry width="50" height="50" relative="1" as="geometry">
            <mxPoint x="110" y="869" as="sourcePoint" />
            <mxPoint x="140" y="840" as="targetPoint" />
          </mxGeometry>
        </mxCell>
        <mxCell id="sD63VuQuJuXM54PMLPWS-19" value=" abrir venda&amp;nbsp;" style="ellipse;whiteSpace=wrap;html=1;" parent="1" vertex="1">
          <mxGeometry x="600" y="750" width="90" height="60" as="geometry" />
        </mxCell>
        <mxCell id="sD63VuQuJuXM54PMLPWS-20" value="" style="endArrow=classic;html=1;rounded=0;" parent="1" source="sD63VuQuJuXM54PMLPWS-10" target="sD63VuQuJuXM54PMLPWS-19" edge="1">
          <mxGeometry width="50" height="50" relative="1" as="geometry">
            <mxPoint x="414" y="909" as="sourcePoint" />
            <mxPoint x="444" y="880" as="targetPoint" />
          </mxGeometry>
        </mxCell>
        <mxCell id="sD63VuQuJuXM54PMLPWS-21" value="" style="endArrow=classic;html=1;rounded=0;" parent="1" source="sD63VuQuJuXM54PMLPWS-10" target="sD63VuQuJuXM54PMLPWS-8" edge="1">
          <mxGeometry width="50" height="50" relative="1" as="geometry">
            <mxPoint x="390" y="910" as="sourcePoint" />
            <mxPoint x="440" y="860" as="targetPoint" />
          </mxGeometry>
        </mxCell>
        <mxCell id="sD63VuQuJuXM54PMLPWS-22" value="" style="endArrow=none;dashed=1;html=1;dashPattern=1 3;strokeWidth=2;rounded=0;entryX=0.015;entryY=0.268;entryDx=0;entryDy=0;entryPerimeter=0;" parent="1" source="sD63VuQuJuXM54PMLPWS-15" target="sD63VuQuJuXM54PMLPWS-19" edge="1">
          <mxGeometry width="50" height="50" relative="1" as="geometry">
            <mxPoint x="390" y="910" as="sourcePoint" />
            <mxPoint x="440" y="860" as="targetPoint" />
            <Array as="points" />
          </mxGeometry>
        </mxCell>
        <mxCell id="sD63VuQuJuXM54PMLPWS-23" value="" style="endArrow=none;dashed=1;html=1;dashPattern=1 3;strokeWidth=2;rounded=0;" parent="1" source="sD63VuQuJuXM54PMLPWS-15" target="sD63VuQuJuXM54PMLPWS-17" edge="1">
          <mxGeometry width="50" height="50" relative="1" as="geometry">
            <mxPoint x="198" y="909" as="sourcePoint" />
            <mxPoint x="530" y="980" as="targetPoint" />
            <Array as="points" />
          </mxGeometry>
        </mxCell>
        <mxCell id="qRDPyTuK80QQO5XOKEts-1" value="" style="endArrow=classic;html=1;rounded=0;entryX=0.711;entryY=0.933;entryDx=0;entryDy=0;entryPerimeter=0;" edge="1" parent="1" source="sD63VuQuJuXM54PMLPWS-10" target="sD63VuQuJuXM54PMLPWS-2">
          <mxGeometry width="50" height="50" relative="1" as="geometry">
            <mxPoint x="390" y="1010" as="sourcePoint" />
            <mxPoint x="440" y="960" as="targetPoint" />
          </mxGeometry>
        </mxCell>
      </root>
    </mxGraphModel>
  </diagram>
</mxfile>
